# xmcd CD database file
#
# Track frame offsets:
#	150
#	20485
#	37130
#	65140
#	96960
#	127125
#	142172
#	166777
#	195262
#	217560
#	236942
#	260420
#
# Disc length: 3815 seconds
#
# Revision: 0
# Processed by: cddbd v1.5.2PL0 Copyright (c) Steve Scherf et al.
# Submitted via: CDex 1.70beta2
#
DISCID=b10ee50c
DTITLE=Ulita Knaus - It's The City
DYEAR=2007
DGENRE=Jazz
TTITLE0=Ulita Knaus - too hot to ignore
TTITLE1=Ulita Knaus - world wide
TTITLE2=Ulita Knaus - secret
TTITLE3=Ulita Knaus - it's the city
TTITLE4=Ulita Knaus - my philosophy
TTITLE5=Ulita Knaus - in rhythm
TTITLE6=Ulita Knaus - white
TTITLE7=Ulita Knaus - you know me
TTITLE8=Ulita Knaus - pure water
TTITLE9=Ulita Knaus - all the things that I can't stand
TTITLE10=Ulita Knaus - welcome
TTITLE11=Ulita Knaus - the way back home
EXTD=YEAR: 2007
EXTT0=
EXTT1=
EXTT2=
EXTT3=
EXTT4=
EXTT5=
EXTT6=
EXTT7=
EXTT8=
EXTT9=
EXTT10=
EXTT11=
PLAYORDER=
